<svg width="1120" height="636" viewBox="0 0 1120 636" fill="none" xmlns="http://www.w3.org/2000/svg">
<rect x="1" y="153" width="346" height="365" rx="32" fill="white" fill-opacity="0.08" stroke="white" stroke-opacity="0.12" stroke-width="2"/>
<path d="M50.487 556.545V582H44.3347V556.545H50.487ZM71.0166 568.738L65.436 568.887C65.378 568.49 65.2206 568.138 64.9637 567.831C64.7068 567.516 64.3712 567.272 63.9569 567.098C63.5509 566.915 63.0786 566.824 62.54 566.824C61.8357 566.824 61.235 566.965 60.7378 567.247C60.249 567.529 60.0087 567.91 60.017 568.39C60.0087 568.763 60.1578 569.086 60.4644 569.36C60.7793 569.633 61.3386 569.853 62.1423 570.018L65.8213 570.714C67.7271 571.079 69.144 571.684 70.072 572.529C71.0083 573.374 71.4806 574.493 71.4889 575.885C71.4806 577.194 71.0912 578.333 70.3206 579.303C69.5583 580.272 68.5142 581.026 67.1885 581.565C65.8627 582.095 64.3464 582.36 62.6395 582.36C59.9134 582.36 57.7632 581.801 56.1888 580.683C54.6228 579.556 53.7279 578.048 53.5042 576.158L59.5074 576.009C59.6399 576.705 59.9838 577.236 60.539 577.6C61.0941 577.965 61.8026 578.147 62.6643 578.147C63.4432 578.147 64.0771 578.002 64.566 577.712C65.0548 577.422 65.3034 577.037 65.3117 576.556C65.3034 576.125 65.1128 575.781 64.74 575.525C64.3671 575.259 63.7829 575.052 62.9875 574.903L59.6565 574.269C57.7425 573.921 56.3173 573.279 55.3809 572.343C54.4446 571.398 53.9806 570.197 53.9889 568.738C53.9806 567.462 54.3203 566.373 55.0081 565.469C55.6958 564.558 56.6736 563.862 57.9413 563.381C59.2091 562.901 60.7047 562.661 62.4282 562.661C65.0134 562.661 67.0518 563.203 68.5432 564.289C70.0347 565.366 70.8592 566.849 71.0166 568.738ZM79.8629 582.323C78.6449 582.323 77.5636 582.12 76.619 581.714C75.6826 581.3 74.9411 580.678 74.3942 579.85C73.8556 579.013 73.5863 577.965 73.5863 576.705C73.5863 575.645 73.7727 574.75 74.1456 574.021C74.5185 573.291 75.0322 572.699 75.6868 572.243C76.3414 571.788 77.0954 571.444 77.9489 571.212C78.8023 570.971 79.7138 570.81 80.6832 570.727C81.7687 570.627 82.6429 570.524 83.3058 570.416C83.9686 570.3 84.4492 570.139 84.7475 569.931C85.0541 569.716 85.2074 569.414 85.2074 569.024V568.962C85.2074 568.324 84.9878 567.831 84.5487 567.483C84.1095 567.135 83.517 566.961 82.7713 566.961C81.9676 566.961 81.3213 567.135 80.8324 567.483C80.3435 567.831 80.0328 568.312 79.9002 568.925L74.2947 568.726C74.4605 567.566 74.8872 566.53 75.5749 565.619C76.271 564.699 77.2238 563.978 78.4336 563.456C79.6516 562.926 81.1141 562.661 82.821 562.661C84.0391 562.661 85.1618 562.806 86.1893 563.096C87.2167 563.377 88.1116 563.792 88.8739 564.338C89.6362 564.877 90.2246 565.54 90.6389 566.327C91.0614 567.114 91.2727 568.013 91.2727 569.024V582H85.5554V579.34H85.4062C85.0665 579.987 84.6315 580.533 84.1012 580.981C83.5792 581.428 82.9619 581.764 82.2493 581.988C81.545 582.211 80.7495 582.323 79.8629 582.323ZM81.7397 578.346C82.3943 578.346 82.9826 578.213 83.5046 577.948C84.0349 577.683 84.4575 577.318 84.7724 576.854C85.0872 576.382 85.2447 575.835 85.2447 575.214V573.399C85.0707 573.49 84.8594 573.573 84.6108 573.648C84.3705 573.722 84.1054 573.793 83.8153 573.859C83.5253 573.925 83.227 573.983 82.9205 574.033C82.6139 574.083 82.3197 574.128 82.038 574.17C81.4663 574.261 80.9774 574.402 80.5714 574.592C80.1737 574.783 79.8671 575.031 79.6516 575.338C79.4445 575.636 79.3409 575.993 79.3409 576.407C79.3409 577.037 79.5646 577.517 80.0121 577.849C80.4678 578.18 81.0437 578.346 81.7397 578.346ZM94.989 582V556.545H101.067V566.178H101.191C101.44 565.598 101.792 565.039 102.248 564.5C102.712 563.961 103.3 563.522 104.012 563.183C104.733 562.835 105.595 562.661 106.598 562.661C107.923 562.661 109.162 563.009 110.314 563.705C111.474 564.401 112.41 565.474 113.123 566.924C113.835 568.374 114.192 570.221 114.192 572.467C114.192 574.63 113.848 576.44 113.16 577.898C112.481 579.357 111.561 580.451 110.401 581.18C109.249 581.909 107.969 582.273 106.56 582.273C105.599 582.273 104.766 582.116 104.062 581.801C103.358 581.486 102.765 581.072 102.285 580.558C101.812 580.045 101.448 579.493 101.191 578.905H101.005V582H94.989ZM100.942 572.455C100.942 573.482 101.079 574.377 101.353 575.139C101.634 575.902 102.036 576.494 102.558 576.917C103.089 577.331 103.722 577.538 104.46 577.538C105.206 577.538 105.839 577.331 106.362 576.917C106.884 576.494 107.277 575.902 107.542 575.139C107.816 574.377 107.952 573.482 107.952 572.455C107.952 571.427 107.816 570.536 107.542 569.782C107.277 569.028 106.884 568.444 106.362 568.03C105.848 567.616 105.214 567.408 104.46 567.408C103.714 567.408 103.08 567.611 102.558 568.017C102.036 568.423 101.634 569.003 101.353 569.757C101.079 570.511 100.942 571.411 100.942 572.455ZM126.301 582.36C124.304 582.36 122.58 581.967 121.13 581.18C119.688 580.384 118.578 579.253 117.799 577.787C117.029 576.312 116.643 574.559 116.643 572.529C116.643 570.557 117.033 568.834 117.812 567.359C118.591 565.875 119.688 564.724 121.105 563.903C122.522 563.075 124.192 562.661 126.114 562.661C127.473 562.661 128.716 562.872 129.843 563.294C130.97 563.717 131.943 564.343 132.764 565.171C133.584 566 134.222 567.023 134.678 568.241C135.134 569.451 135.361 570.839 135.361 572.405V573.921H118.769V570.391H129.706C129.698 569.745 129.545 569.169 129.246 568.664C128.948 568.158 128.538 567.765 128.016 567.483C127.502 567.193 126.91 567.048 126.239 567.048C125.559 567.048 124.95 567.201 124.411 567.508C123.873 567.806 123.446 568.216 123.131 568.738C122.816 569.252 122.651 569.836 122.634 570.491V574.083C122.634 574.862 122.787 575.545 123.094 576.134C123.401 576.714 123.836 577.165 124.399 577.488C124.963 577.811 125.634 577.973 126.413 577.973C126.951 577.973 127.44 577.898 127.879 577.749C128.318 577.6 128.695 577.381 129.01 577.091C129.325 576.801 129.561 576.444 129.719 576.022L135.299 576.183C135.067 577.434 134.558 578.524 133.771 579.452C132.992 580.372 131.968 581.089 130.701 581.602C129.433 582.108 127.966 582.36 126.301 582.36ZM144.543 556.545V582H138.466V556.545H144.543ZM154.49 556.545V582H148.412V556.545H154.49ZM163.74 582.323C162.522 582.323 161.441 582.12 160.496 581.714C159.56 581.3 158.818 580.678 158.271 579.85C157.733 579.013 157.463 577.965 157.463 576.705C157.463 575.645 157.65 574.75 158.023 574.021C158.395 573.291 158.909 572.699 159.564 572.243C160.218 571.788 160.972 571.444 161.826 571.212C162.679 570.971 163.591 570.81 164.56 570.727C165.646 570.627 166.52 570.524 167.183 570.416C167.846 570.3 168.326 570.139 168.624 569.931C168.931 569.716 169.084 569.414 169.084 569.024V568.962C169.084 568.324 168.865 567.831 168.426 567.483C167.986 567.135 167.394 566.961 166.648 566.961C165.845 566.961 165.198 567.135 164.709 567.483C164.22 567.831 163.91 568.312 163.777 568.925L158.172 568.726C158.337 567.566 158.764 566.53 159.452 565.619C160.148 564.699 161.101 563.978 162.311 563.456C163.529 562.926 164.991 562.661 166.698 562.661C167.916 562.661 169.039 562.806 170.066 563.096C171.094 563.377 171.989 563.792 172.751 564.338C173.513 564.877 174.102 565.54 174.516 566.327C174.938 567.114 175.15 568.013 175.15 569.024V582H169.432V579.34H169.283C168.943 579.987 168.508 580.533 167.978 580.981C167.456 581.428 166.839 581.764 166.126 581.988C165.422 582.211 164.626 582.323 163.74 582.323ZM165.617 578.346C166.271 578.346 166.86 578.213 167.382 577.948C167.912 577.683 168.334 577.318 168.649 576.854C168.964 576.382 169.122 575.835 169.122 575.214V573.399C168.948 573.49 168.736 573.573 168.488 573.648C168.247 573.722 167.982 573.793 167.692 573.859C167.402 573.925 167.104 573.983 166.797 574.033C166.491 574.083 166.197 574.128 165.915 574.17C165.343 574.261 164.854 574.402 164.448 574.592C164.051 574.783 163.744 575.031 163.529 575.338C163.321 575.636 163.218 575.993 163.218 576.407C163.218 577.037 163.442 577.517 163.889 577.849C164.345 578.18 164.921 578.346 165.617 578.346ZM192.488 582L185.08 556.545H191.879L195.72 573.225H195.931L200.318 556.545H205.862L210.249 573.262H210.46L214.313 556.545H221.1L213.704 582H207.776L203.189 566.563H202.991L198.404 582H192.488ZM223.641 582V562.909H229.719V582H223.641ZM226.686 560.684C225.833 560.684 225.1 560.403 224.487 559.839C223.873 559.267 223.567 558.58 223.567 557.776C223.567 556.98 223.873 556.301 224.487 555.738C225.1 555.166 225.833 554.88 226.686 554.88C227.548 554.88 228.281 555.166 228.886 555.738C229.5 556.301 229.806 556.98 229.806 557.776C229.806 558.58 229.5 559.267 228.886 559.839C228.281 560.403 227.548 560.684 226.686 560.684ZM239.665 556.545V582H233.588V556.545H239.665ZM260.201 568.738L254.621 568.887C254.563 568.49 254.405 568.138 254.148 567.831C253.891 567.516 253.556 567.272 253.142 567.098C252.736 566.915 252.263 566.824 251.725 566.824C251.02 566.824 250.42 566.965 249.922 567.247C249.434 567.529 249.193 567.91 249.202 568.39C249.193 568.763 249.342 569.086 249.649 569.36C249.964 569.633 250.523 569.853 251.327 570.018L255.006 570.714C256.912 571.079 258.329 571.684 259.257 572.529C260.193 573.374 260.665 574.493 260.673 575.885C260.665 577.194 260.276 578.333 259.505 579.303C258.743 580.272 257.699 581.026 256.373 581.565C255.047 582.095 253.531 582.36 251.824 582.36C249.098 582.36 246.948 581.801 245.373 580.683C243.807 579.556 242.912 578.048 242.689 576.158L248.692 576.009C248.825 576.705 249.168 577.236 249.724 577.6C250.279 577.965 250.987 578.147 251.849 578.147C252.628 578.147 253.262 578.002 253.751 577.712C254.239 577.422 254.488 577.037 254.496 576.556C254.488 576.125 254.297 575.781 253.925 575.525C253.552 575.259 252.968 575.052 252.172 574.903L248.841 574.269C246.927 573.921 245.502 573.279 244.566 572.343C243.629 571.398 243.165 570.197 243.173 568.738C243.165 567.462 243.505 566.373 244.193 565.469C244.88 564.558 245.858 563.862 247.126 563.381C248.394 562.901 249.889 562.661 251.613 562.661C254.198 562.661 256.236 563.203 257.728 564.289C259.219 565.366 260.044 566.849 260.201 568.738ZM272.577 582.36C270.572 582.36 268.849 581.95 267.407 581.13C265.973 580.301 264.867 579.15 264.088 577.675C263.318 576.192 262.932 574.472 262.932 572.517C262.932 570.553 263.318 568.834 264.088 567.359C264.867 565.875 265.973 564.724 267.407 563.903C268.849 563.075 270.572 562.661 272.577 562.661C274.583 562.661 276.302 563.075 277.735 563.903C279.177 564.724 280.283 565.875 281.054 567.359C281.833 568.834 282.222 570.553 282.222 572.517C282.222 574.472 281.833 576.192 281.054 577.675C280.283 579.15 279.177 580.301 277.735 581.13C276.302 581.95 274.583 582.36 272.577 582.36ZM272.615 577.774C273.344 577.774 273.961 577.55 274.467 577.103C274.972 576.656 275.357 576.034 275.622 575.239C275.896 574.443 276.033 573.523 276.033 572.479C276.033 571.419 275.896 570.491 275.622 569.695C275.357 568.9 274.972 568.278 274.467 567.831C273.961 567.384 273.344 567.16 272.615 567.16C271.861 567.16 271.223 567.384 270.701 567.831C270.187 568.278 269.793 568.9 269.52 569.695C269.255 570.491 269.122 571.419 269.122 572.479C269.122 573.523 269.255 574.443 269.52 575.239C269.793 576.034 270.187 576.656 270.701 577.103C271.223 577.55 271.861 577.774 272.615 577.774ZM291.413 571.112V582H285.336V562.909H291.115V566.414H291.326C291.749 565.246 292.47 564.33 293.489 563.667C294.508 562.996 295.722 562.661 297.131 562.661C298.473 562.661 299.637 562.963 300.623 563.568C301.618 564.164 302.388 565.001 302.935 566.078C303.49 567.147 303.764 568.399 303.755 569.832V582H297.678V571.025C297.686 569.965 297.417 569.136 296.87 568.539C296.331 567.943 295.581 567.645 294.62 567.645C293.982 567.645 293.419 567.785 292.93 568.067C292.449 568.341 292.076 568.734 291.811 569.248C291.554 569.762 291.422 570.383 291.413 571.112Z" fill="white"/>
<path opacity="0.6" d="M152.627 620.909C152.627 622.827 152.28 624.484 151.588 625.881C150.895 627.277 149.945 628.355 148.738 629.112C147.531 629.87 146.152 630.249 144.601 630.249C143.05 630.249 141.671 629.87 140.464 629.112C139.257 628.355 138.307 627.277 137.614 625.881C136.922 624.484 136.575 622.827 136.575 620.909C136.575 618.991 136.922 617.334 137.614 615.938C138.307 614.541 139.257 613.464 140.464 612.706C141.671 611.948 143.05 611.57 144.601 611.57C146.152 611.57 147.531 611.948 148.738 612.706C149.945 613.464 150.895 614.541 151.588 615.938C152.28 617.334 152.627 618.991 152.627 620.909ZM150.496 620.909C150.496 619.335 150.233 618.006 149.706 616.923C149.185 615.84 148.478 615.02 147.584 614.464C146.696 613.907 145.702 613.629 144.601 613.629C143.5 613.629 142.503 613.907 141.609 614.464C140.721 615.02 140.014 615.84 139.487 616.923C138.967 618.006 138.706 619.335 138.706 620.909C138.706 622.483 138.967 623.812 139.487 624.895C140.014 625.978 140.721 626.798 141.609 627.354C142.503 627.911 143.5 628.189 144.601 628.189C145.702 628.189 146.696 627.911 147.584 627.354C148.478 626.798 149.185 625.978 149.706 624.895C150.233 623.812 150.496 622.483 150.496 620.909ZM159.134 630L154.979 616.364H157.181L160.128 626.804H160.27L163.182 616.364H165.42L168.296 626.768H168.438L171.385 616.364H173.587L169.432 630H167.373L164.39 619.524H164.177L161.194 630H159.134ZM178.452 621.797V630H176.357V616.364H178.381V618.494H178.559C178.878 617.802 179.364 617.246 180.015 616.825C180.666 616.399 181.506 616.186 182.536 616.186C183.459 616.186 184.267 616.375 184.96 616.754C185.652 617.127 186.191 617.695 186.575 618.459C186.96 619.216 187.153 620.175 187.153 621.335V630H185.057V621.477C185.057 620.406 184.779 619.571 184.223 618.974C183.666 618.37 182.903 618.068 181.932 618.068C181.264 618.068 180.666 618.213 180.139 618.503C179.618 618.793 179.207 619.216 178.905 619.773C178.603 620.329 178.452 621.004 178.452 621.797ZM196.698 630.284C195.384 630.284 194.251 629.994 193.298 629.414C192.351 628.828 191.62 628.011 191.105 626.964C190.596 625.91 190.342 624.685 190.342 623.288C190.342 621.892 190.596 620.661 191.105 619.595C191.62 618.524 192.336 617.689 193.254 617.092C194.177 616.488 195.254 616.186 196.485 616.186C197.196 616.186 197.897 616.304 198.589 616.541C199.282 616.778 199.912 617.163 200.48 617.695C201.049 618.222 201.501 618.92 201.839 619.79C202.176 620.661 202.345 621.732 202.345 623.004V623.892H191.833V622.081H200.214C200.214 621.312 200.06 620.625 199.752 620.021C199.451 619.418 199.018 618.941 198.456 618.592C197.9 618.243 197.243 618.068 196.485 618.068C195.651 618.068 194.929 618.275 194.319 618.69C193.715 619.098 193.251 619.631 192.925 620.288C192.6 620.945 192.437 621.649 192.437 622.401V623.608C192.437 624.638 192.615 625.511 192.97 626.227C193.331 626.937 193.831 627.479 194.47 627.852C195.109 628.219 195.852 628.402 196.698 628.402C197.249 628.402 197.746 628.325 198.19 628.171C198.64 628.011 199.027 627.775 199.353 627.461C199.678 627.141 199.93 626.745 200.108 626.271L202.132 626.839C201.919 627.526 201.561 628.13 201.057 628.651C200.554 629.165 199.933 629.568 199.193 629.858C198.453 630.142 197.622 630.284 196.698 630.284ZM205.532 630V616.364H207.556V618.423H207.698C207.947 617.749 208.396 617.201 209.047 616.781C209.699 616.361 210.432 616.151 211.249 616.151C211.403 616.151 211.595 616.154 211.826 616.159C212.057 616.165 212.232 616.174 212.35 616.186V618.317C212.279 618.299 212.116 618.272 211.862 618.237C211.613 618.195 211.35 618.175 211.072 618.175C210.409 618.175 209.817 618.314 209.296 618.592C208.781 618.864 208.373 619.243 208.071 619.728C207.775 620.208 207.627 620.755 207.627 621.371V630H205.532Z" fill="white" fill-opacity="0.8"/>
<rect x="387" y="153" width="346" height="365" rx="32" fill="white" fill-opacity="0.08" stroke="white" stroke-opacity="0.12" stroke-width="2"/>
<path d="M455.047 582V556.545H465.562C467.467 556.545 469.112 556.918 470.496 557.664C471.888 558.402 472.961 559.433 473.715 560.759C474.469 562.076 474.846 563.609 474.846 565.358C474.846 567.114 474.461 568.651 473.69 569.969C472.928 571.278 471.838 572.293 470.421 573.014C469.004 573.735 467.322 574.095 465.375 574.095H458.887V569.248H464.232C465.16 569.248 465.934 569.086 466.556 568.763C467.186 568.44 467.662 567.988 467.985 567.408C468.308 566.82 468.47 566.136 468.47 565.358C468.47 564.57 468.308 563.891 467.985 563.319C467.662 562.739 467.186 562.292 466.556 561.977C465.926 561.662 465.151 561.505 464.232 561.505H461.199V582H455.047ZM486.427 582.36C484.43 582.36 482.706 581.967 481.256 581.18C479.814 580.384 478.704 579.253 477.925 577.787C477.155 576.312 476.769 574.559 476.769 572.529C476.769 570.557 477.159 568.834 477.938 567.359C478.717 565.875 479.814 564.724 481.231 563.903C482.648 563.075 484.318 562.661 486.24 562.661C487.599 562.661 488.842 562.872 489.969 563.294C491.096 563.717 492.069 564.343 492.89 565.171C493.71 566 494.348 567.023 494.804 568.241C495.26 569.451 495.487 570.839 495.487 572.405V573.921H478.895V570.391H489.832C489.824 569.745 489.671 569.169 489.372 568.664C489.074 568.158 488.664 567.765 488.142 567.483C487.628 567.193 487.036 567.048 486.365 567.048C485.685 567.048 485.076 567.201 484.537 567.508C483.999 567.806 483.572 568.216 483.257 568.738C482.942 569.252 482.777 569.836 482.76 570.491V574.083C482.76 574.862 482.913 575.545 483.22 576.134C483.527 576.714 483.962 577.165 484.525 577.488C485.088 577.811 485.76 577.973 486.539 577.973C487.077 577.973 487.566 577.898 488.005 577.749C488.444 577.6 488.821 577.381 489.136 577.091C489.451 576.801 489.687 576.444 489.845 576.022L495.425 576.183C495.193 577.434 494.684 578.524 493.896 579.452C493.118 580.372 492.094 581.089 490.827 581.602C489.559 582.108 488.092 582.36 486.427 582.36ZM509.367 562.909V567.384H497.324V562.909H509.367ZM499.847 558.335H505.925V575.997C505.925 576.37 505.983 576.672 506.099 576.904C506.223 577.128 506.401 577.289 506.633 577.389C506.865 577.48 507.143 577.526 507.466 577.526C507.698 577.526 507.942 577.505 508.199 577.463C508.464 577.414 508.663 577.372 508.796 577.339L509.715 581.727C509.425 581.809 509.015 581.913 508.485 582.037C507.963 582.162 507.337 582.24 506.608 582.273C505.183 582.34 503.961 582.174 502.942 581.776C501.931 581.37 501.156 580.741 500.617 579.887C500.087 579.034 499.83 577.961 499.847 576.668V558.335ZM521.187 582.36C519.19 582.36 517.467 581.967 516.017 581.18C514.575 580.384 513.465 579.253 512.686 577.787C511.915 576.312 511.53 574.559 511.53 572.529C511.53 570.557 511.92 568.834 512.698 567.359C513.477 565.875 514.575 564.724 515.992 563.903C517.409 563.075 519.079 562.661 521.001 562.661C522.36 562.661 523.603 562.872 524.73 563.294C525.857 563.717 526.83 564.343 527.65 565.171C528.471 566 529.109 567.023 529.565 568.241C530.02 569.451 530.248 570.839 530.248 572.405V573.921H513.655V570.391H524.593C524.585 569.745 524.431 569.169 524.133 568.664C523.835 568.158 523.425 567.765 522.903 567.483C522.389 567.193 521.796 567.048 521.125 567.048C520.446 567.048 519.837 567.201 519.298 567.508C518.76 567.806 518.333 568.216 518.018 568.738C517.703 569.252 517.537 569.836 517.521 570.491V574.083C517.521 574.862 517.674 575.545 517.981 576.134C518.287 576.714 518.722 577.165 519.286 577.488C519.849 577.811 520.52 577.973 521.299 577.973C521.838 577.973 522.327 577.898 522.766 577.749C523.205 577.6 523.582 577.381 523.897 577.091C524.212 576.801 524.448 576.444 524.605 576.022L530.186 576.183C529.954 577.434 529.444 578.524 528.657 579.452C527.878 580.372 526.855 581.089 525.587 581.602C524.32 582.108 522.853 582.36 521.187 582.36ZM533.352 582V562.909H539.256V566.389H539.455C539.803 565.13 540.371 564.193 541.158 563.58C541.945 562.959 542.86 562.648 543.904 562.648C544.186 562.648 544.476 562.669 544.775 562.71C545.073 562.743 545.35 562.797 545.607 562.872V568.154C545.317 568.055 544.936 567.976 544.464 567.918C544 567.86 543.585 567.831 543.221 567.831C542.5 567.831 541.85 567.993 541.27 568.316C540.698 568.631 540.246 569.074 539.915 569.646C539.592 570.209 539.43 570.872 539.43 571.634V582H533.352ZM555.603 582V556.545H566.118C568.024 556.545 569.669 556.918 571.052 557.664C572.445 558.402 573.518 559.433 574.272 560.759C575.026 562.076 575.403 563.609 575.403 565.358C575.403 567.114 575.017 568.651 574.247 569.969C573.484 571.278 572.395 572.293 570.978 573.014C569.561 573.735 567.879 574.095 565.932 574.095H559.444V569.248H564.788C565.716 569.248 566.491 569.086 567.112 568.763C567.742 568.44 568.219 567.988 568.542 567.408C568.865 566.82 569.027 566.136 569.027 565.358C569.027 564.57 568.865 563.891 568.542 563.319C568.219 562.739 567.742 562.292 567.112 561.977C566.483 561.662 565.708 561.505 564.788 561.505H561.756V582H555.603ZM583.133 582.323C581.915 582.323 580.834 582.12 579.889 581.714C578.953 581.3 578.212 580.678 577.665 579.85C577.126 579.013 576.857 577.965 576.857 576.705C576.857 575.645 577.043 574.75 577.416 574.021C577.789 573.291 578.303 572.699 578.957 572.243C579.612 571.788 580.366 571.444 581.219 571.212C582.073 570.971 582.984 570.81 583.954 570.727C585.039 570.627 585.913 570.524 586.576 570.416C587.239 570.3 587.72 570.139 588.018 569.931C588.325 569.716 588.478 569.414 588.478 569.024V568.962C588.478 568.324 588.258 567.831 587.819 567.483C587.38 567.135 586.788 566.961 586.042 566.961C585.238 566.961 584.592 567.135 584.103 567.483C583.614 567.831 583.303 568.312 583.171 568.925L577.565 568.726C577.731 567.566 578.158 566.53 578.845 565.619C579.541 564.699 580.494 563.978 581.704 563.456C582.922 562.926 584.385 562.661 586.092 562.661C587.31 562.661 588.432 562.806 589.46 563.096C590.487 563.377 591.382 563.792 592.144 564.338C592.907 564.877 593.495 565.54 593.909 566.327C594.332 567.114 594.543 568.013 594.543 569.024V582H588.826V579.34H588.677C588.337 579.987 587.902 580.533 587.372 580.981C586.85 581.428 586.232 581.764 585.52 581.988C584.815 582.211 584.02 582.323 583.133 582.323ZM585.01 578.346C585.665 578.346 586.253 578.213 586.775 577.948C587.305 577.683 587.728 577.318 588.043 576.854C588.358 576.382 588.515 575.835 588.515 575.214V573.399C588.341 573.49 588.13 573.573 587.881 573.648C587.641 573.722 587.376 573.793 587.086 573.859C586.796 573.925 586.498 573.983 586.191 574.033C585.884 574.083 585.59 574.128 585.309 574.17C584.737 574.261 584.248 574.402 583.842 574.592C583.444 574.783 583.138 575.031 582.922 575.338C582.715 575.636 582.611 575.993 582.611 576.407C582.611 577.037 582.835 577.517 583.283 577.849C583.738 578.18 584.314 578.346 585.01 578.346ZM598.259 582V562.909H604.163V566.389H604.362C604.71 565.13 605.278 564.193 606.065 563.58C606.852 562.959 607.768 562.648 608.812 562.648C609.093 562.648 609.383 562.669 609.682 562.71C609.98 562.743 610.258 562.797 610.514 562.872V568.154C610.224 568.055 609.843 567.976 609.371 567.918C608.907 567.86 608.493 567.831 608.128 567.831C607.407 567.831 606.757 567.993 606.177 568.316C605.605 568.631 605.153 569.074 604.822 569.646C604.499 570.209 604.337 570.872 604.337 571.634V582H598.259ZM618.472 576.991L618.497 569.745H619.342L624.711 562.909H631.597L623.618 572.703H622.014L618.472 576.991ZM612.991 582V556.545H619.069V582H612.991ZM624.848 582L619.852 574.07L623.854 569.757L631.871 582H624.848ZM641.91 582.36C639.913 582.36 638.19 581.967 636.74 581.18C635.298 580.384 634.188 579.253 633.409 577.787C632.638 576.312 632.253 574.559 632.253 572.529C632.253 570.557 632.642 568.834 633.421 567.359C634.2 565.875 635.298 564.724 636.715 563.903C638.132 563.075 639.801 562.661 641.724 562.661C643.083 562.661 644.325 562.872 645.452 563.294C646.579 563.717 647.553 564.343 648.373 565.171C649.193 566 649.831 567.023 650.287 568.241C650.743 569.451 650.971 570.839 650.971 572.405V573.921H634.378V570.391H645.316C645.307 569.745 645.154 569.169 644.856 568.664C644.557 568.158 644.147 567.765 643.625 567.483C643.112 567.193 642.519 567.048 641.848 567.048C641.168 567.048 640.559 567.201 640.021 567.508C639.482 567.806 639.056 568.216 638.741 568.738C638.426 569.252 638.26 569.836 638.244 570.491V574.083C638.244 574.862 638.397 575.545 638.703 576.134C639.01 576.714 639.445 577.165 640.008 577.488C640.572 577.811 641.243 577.973 642.022 577.973C642.561 577.973 643.049 577.898 643.489 577.749C643.928 577.6 644.305 577.381 644.62 577.091C644.934 576.801 645.171 576.444 645.328 576.022L650.909 576.183C650.677 577.434 650.167 578.524 649.38 579.452C648.601 580.372 647.578 581.089 646.31 581.602C645.042 582.108 643.576 582.36 641.91 582.36ZM654.075 582V562.909H659.979V566.389H660.178C660.526 565.13 661.093 564.193 661.88 563.58C662.667 562.959 663.583 562.648 664.627 562.648C664.909 562.648 665.199 562.669 665.497 562.71C665.795 562.743 666.073 562.797 666.33 562.872V568.154C666.04 568.055 665.659 567.976 665.186 567.918C664.722 567.86 664.308 567.831 663.944 567.831C663.223 567.831 662.572 567.993 661.992 568.316C661.42 568.631 660.969 569.074 660.637 569.646C660.314 570.209 660.153 570.872 660.153 571.634V582H654.075Z" fill="white"/>
<path opacity="0.6" d="M529.248 611.818H531.45V623.857C531.45 625.099 531.157 626.209 530.571 627.186C529.991 628.156 529.171 628.923 528.112 629.485C527.052 630.041 525.81 630.32 524.383 630.32C522.957 630.32 521.714 630.041 520.655 629.485C519.595 628.923 518.772 628.156 518.186 627.186C517.606 626.209 517.316 625.099 517.316 623.857V611.818H519.518V623.679C519.518 624.567 519.713 625.357 520.104 626.049C520.495 626.736 521.051 627.277 521.773 627.674C522.501 628.065 523.371 628.26 524.383 628.26C525.395 628.26 526.265 628.065 526.993 627.674C527.721 627.277 528.278 626.736 528.662 626.049C529.053 625.357 529.248 624.567 529.248 623.679V611.818ZM538.048 611.818V630H535.847V611.818H538.048ZM554.359 630.249C553.164 630.249 552.134 630.03 551.27 629.592C550.406 629.154 549.74 628.553 549.272 627.789C548.805 627.026 548.571 626.153 548.571 625.17C548.571 624.413 548.731 623.741 549.05 623.155C549.376 622.563 549.823 622.016 550.391 621.513C550.965 621.004 551.625 620.495 552.371 619.986L554.998 618.033C555.513 617.695 555.925 617.334 556.232 616.95C556.546 616.565 556.703 616.062 556.703 615.44C556.703 614.979 556.499 614.532 556.09 614.1C555.688 613.668 555.158 613.452 554.501 613.452C554.04 613.452 553.631 613.57 553.276 613.807C552.927 614.038 552.652 614.334 552.451 614.695C552.255 615.05 552.158 615.417 552.158 615.795C552.158 616.222 552.273 616.654 552.504 617.092C552.741 617.524 553.039 617.968 553.4 618.423C553.767 618.873 554.146 619.335 554.537 619.808L562.882 630H560.361L553.471 621.69C552.832 620.921 552.252 620.223 551.731 619.595C551.211 618.968 550.796 618.349 550.489 617.74C550.181 617.13 550.027 616.47 550.027 615.76C550.027 614.943 550.207 614.227 550.568 613.612C550.935 612.99 551.447 612.508 552.104 612.164C552.767 611.815 553.542 611.641 554.43 611.641C555.342 611.641 556.126 611.818 556.783 612.173C557.44 612.522 557.946 612.987 558.301 613.567C558.656 614.141 558.834 614.766 558.834 615.44C558.834 616.31 558.618 617.065 558.186 617.704C557.754 618.343 557.165 618.938 556.419 619.489L552.797 622.188C551.98 622.791 551.427 623.377 551.137 623.945C550.847 624.513 550.702 624.922 550.702 625.17C550.702 625.739 550.85 626.268 551.145 626.76C551.441 627.251 551.859 627.647 552.397 627.949C552.936 628.251 553.566 628.402 554.288 628.402C554.975 628.402 555.644 628.257 556.295 627.967C556.946 627.671 557.535 627.245 558.061 626.689C558.594 626.132 559.014 625.463 559.322 624.682C559.636 623.901 559.792 623.022 559.792 622.045H561.817C561.817 623.253 561.678 624.238 561.399 625.002C561.121 625.765 560.808 626.363 560.458 626.795C560.109 627.227 559.828 627.55 559.615 627.763C559.544 627.852 559.479 627.94 559.42 628.029C559.36 628.118 559.295 628.207 559.224 628.295C558.638 628.952 557.899 629.444 557.005 629.769C556.111 630.089 555.229 630.249 554.359 630.249ZM584.448 611.818H586.65V623.857C586.65 625.099 586.357 626.209 585.771 627.186C585.191 628.156 584.372 628.923 583.312 629.485C582.253 630.041 581.01 630.32 579.583 630.32C578.157 630.32 576.914 630.041 575.855 629.485C574.795 628.923 573.973 628.156 573.387 627.186C572.807 626.209 572.517 625.099 572.517 623.857V611.818H574.718V623.679C574.718 624.567 574.914 625.357 575.304 626.049C575.695 626.736 576.251 627.277 576.973 627.674C577.701 628.065 578.571 628.26 579.583 628.26C580.595 628.26 581.466 628.065 582.193 627.674C582.921 627.277 583.478 626.736 583.863 626.049C584.253 625.357 584.448 624.567 584.448 623.679V611.818ZM592.112 611.818L596.8 619.382H596.942L601.629 611.818H604.222L598.504 620.909L604.222 630H601.629L596.942 622.578H596.8L592.112 630H589.52L595.379 620.909L589.52 611.818H592.112Z" fill="white" fill-opacity="0.8"/>
<rect x="773" y="147" width="346" height="365" rx="32" fill="white" fill-opacity="0.08" stroke="white" stroke-opacity="0.12" stroke-width="2"/>
<path d="M813.437 576H806.825L815.413 550.545H823.604L832.192 576H825.58L819.602 556.959H819.403L813.437 576ZM812.554 565.982H826.375V570.656H812.554V565.982ZM851.059 556.909L844.509 576H837.549L831.011 556.909H837.412L840.93 570.059H841.129L844.659 556.909H851.059ZM861.699 576.36C859.702 576.36 857.978 575.967 856.528 575.18C855.086 574.384 853.976 573.253 853.197 571.787C852.427 570.312 852.041 568.559 852.041 566.529C852.041 564.557 852.431 562.834 853.21 561.359C853.989 559.875 855.086 558.724 856.503 557.903C857.92 557.075 859.59 556.661 861.512 556.661C862.871 556.661 864.114 556.872 865.241 557.294C866.368 557.717 867.341 558.343 868.162 559.171C868.982 560 869.62 561.023 870.076 562.241C870.532 563.451 870.759 564.839 870.759 566.405V567.921H854.167V564.391H865.104C865.096 563.745 864.943 563.169 864.644 562.664C864.346 562.158 863.936 561.765 863.414 561.483C862.9 561.193 862.308 561.048 861.636 561.048C860.957 561.048 860.348 561.201 859.809 561.508C859.271 561.806 858.844 562.216 858.529 562.738C858.214 563.252 858.049 563.836 858.032 564.491V568.083C858.032 568.862 858.185 569.545 858.492 570.134C858.799 570.714 859.234 571.165 859.797 571.488C860.36 571.811 861.032 571.973 861.811 571.973C862.349 571.973 862.838 571.898 863.277 571.749C863.716 571.6 864.093 571.381 864.408 571.091C864.723 570.801 864.959 570.444 865.117 570.022L870.697 570.183C870.465 571.434 869.956 572.524 869.168 573.452C868.39 574.372 867.366 575.089 866.098 575.602C864.831 576.108 863.364 576.36 861.699 576.36ZM873.864 576V556.909H879.767V560.389H879.966C880.314 559.13 880.882 558.193 881.669 557.58C882.456 556.959 883.372 556.648 884.416 556.648C884.697 556.648 884.987 556.669 885.286 556.71C885.584 556.743 885.862 556.797 886.118 556.872V562.154C885.828 562.055 885.447 561.976 884.975 561.918C884.511 561.86 884.097 561.831 883.732 561.831C883.011 561.831 882.361 561.993 881.781 562.316C881.209 562.631 880.757 563.074 880.426 563.646C880.103 564.209 879.941 564.872 879.941 565.634V576H873.864ZM892.892 583.159C892.163 583.159 891.475 583.101 890.829 582.985C890.183 582.877 889.628 582.732 889.164 582.55L890.506 578.138C891.102 578.337 891.641 578.453 892.122 578.486C892.611 578.519 893.029 578.44 893.377 578.25C893.733 578.067 894.007 577.74 894.197 577.268L894.433 576.696L887.647 556.909H894.011L897.528 570.531H897.727L901.294 556.909H907.695L900.499 577.827C900.151 578.871 899.658 579.791 899.02 580.586C898.39 581.39 897.574 582.02 896.571 582.475C895.577 582.931 894.351 583.159 892.892 583.159ZM923.051 576H916.439L925.027 550.545H933.218L941.807 576H935.194L929.216 556.959H929.017L923.051 576ZM922.169 565.982H935.99V570.656H922.169V565.982ZM950.625 565.112V576H944.547V556.909H950.327V560.414H950.538C950.96 559.246 951.681 558.33 952.701 557.667C953.72 556.996 954.934 556.661 956.342 556.661C957.685 556.661 958.849 556.963 959.835 557.568C960.829 558.164 961.6 559.001 962.147 560.078C962.702 561.147 962.975 562.399 962.967 563.832V576H956.889V565.025C956.897 563.965 956.628 563.136 956.081 562.539C955.543 561.943 954.793 561.645 953.832 561.645C953.194 561.645 952.63 561.785 952.141 562.067C951.661 562.341 951.288 562.734 951.023 563.248C950.766 563.762 950.633 564.383 950.625 565.112ZM973.702 576.273C972.294 576.273 971.014 575.909 969.862 575.18C968.71 574.451 967.79 573.357 967.103 571.898C966.415 570.44 966.071 568.63 966.071 566.467C966.071 564.221 966.427 562.374 967.14 560.924C967.852 559.474 968.785 558.401 969.936 557.705C971.096 557.009 972.343 556.661 973.678 556.661C974.68 556.661 975.538 556.835 976.25 557.183C976.963 557.522 977.551 557.961 978.015 558.5C978.479 559.039 978.831 559.598 979.072 560.178H979.196V550.545H985.274V576H979.258V572.905H979.072C978.815 573.493 978.45 574.045 977.978 574.558C977.506 575.072 976.913 575.486 976.201 575.801C975.496 576.116 974.664 576.273 973.702 576.273ZM975.815 571.538C976.553 571.538 977.182 571.331 977.705 570.917C978.227 570.494 978.628 569.902 978.91 569.139C979.192 568.377 979.333 567.482 979.333 566.455C979.333 565.411 979.192 564.511 978.91 563.757C978.637 563.003 978.235 562.423 977.705 562.017C977.182 561.611 976.553 561.408 975.815 561.408C975.061 561.408 974.423 561.616 973.901 562.03C973.379 562.444 972.981 563.028 972.708 563.782C972.443 564.536 972.31 565.427 972.31 566.455C972.31 567.482 972.447 568.377 972.72 569.139C972.994 569.902 973.388 570.494 973.901 570.917C974.423 571.331 975.061 571.538 975.815 571.538ZM998.041 576.36C996.044 576.36 994.321 575.967 992.871 575.18C991.429 574.384 990.319 573.253 989.54 571.787C988.769 570.312 988.384 568.559 988.384 566.529C988.384 564.557 988.774 562.834 989.552 561.359C990.331 559.875 991.429 558.724 992.846 557.903C994.263 557.075 995.933 556.661 997.855 556.661C999.214 556.661 1000.46 556.872 1001.58 557.294C1002.71 557.717 1003.68 558.343 1004.5 559.171C1005.32 560 1005.96 561.023 1006.42 562.241C1006.87 563.451 1007.1 564.839 1007.1 566.405V567.921H990.509V564.391H1001.45C1001.44 563.745 1001.29 563.169 1000.99 562.664C1000.69 562.158 1000.28 561.765 999.757 561.483C999.243 561.193 998.65 561.048 997.979 561.048C997.3 561.048 996.691 561.201 996.152 561.508C995.614 561.806 995.187 562.216 994.872 562.738C994.557 563.252 994.391 563.836 994.375 564.491V568.083C994.375 568.862 994.528 569.545 994.835 570.134C995.141 570.714 995.576 571.165 996.14 571.488C996.703 571.811 997.374 571.973 998.153 571.973C998.692 571.973 999.181 571.898 999.62 571.749C1000.06 571.6 1000.44 571.381 1000.75 571.091C1001.07 570.801 1001.3 570.444 1001.46 570.022L1007.04 570.183C1006.81 571.434 1006.3 572.524 1005.51 573.452C1004.73 574.372 1003.71 575.089 1002.44 575.602C1001.17 576.108 999.707 576.36 998.041 576.36ZM1010.21 576V556.909H1016.11V560.389H1016.31C1016.66 559.13 1017.22 558.193 1018.01 557.58C1018.8 556.959 1019.71 556.648 1020.76 556.648C1021.04 556.648 1021.33 556.669 1021.63 556.71C1021.93 556.743 1022.2 556.797 1022.46 556.872V562.154C1022.17 562.055 1021.79 561.976 1021.32 561.918C1020.85 561.86 1020.44 561.831 1020.07 561.831C1019.35 561.831 1018.7 561.993 1018.12 562.316C1017.55 562.631 1017.1 563.074 1016.77 563.646C1016.45 564.209 1016.28 564.872 1016.28 565.634V576H1010.21ZM1041.6 562.738L1036.02 562.887C1035.97 562.49 1035.81 562.138 1035.55 561.831C1035.3 561.516 1034.96 561.272 1034.55 561.098C1034.14 560.915 1033.67 560.824 1033.13 560.824C1032.42 560.824 1031.82 560.965 1031.33 561.247C1030.84 561.529 1030.6 561.91 1030.61 562.39C1030.6 562.763 1030.75 563.086 1031.05 563.36C1031.37 563.633 1031.93 563.853 1032.73 564.018L1036.41 564.714C1038.32 565.079 1039.73 565.684 1040.66 566.529C1041.6 567.374 1042.07 568.493 1042.08 569.885C1042.07 571.194 1041.68 572.333 1040.91 573.303C1040.15 574.272 1039.1 575.026 1037.78 575.565C1036.45 576.095 1034.93 576.36 1033.23 576.36C1030.5 576.36 1028.35 575.801 1026.78 574.683C1025.21 573.556 1024.32 572.048 1024.09 570.158L1030.1 570.009C1030.23 570.705 1030.57 571.236 1031.13 571.6C1031.68 571.965 1032.39 572.147 1033.25 572.147C1034.03 572.147 1034.67 572.002 1035.15 571.712C1035.64 571.422 1035.89 571.037 1035.9 570.556C1035.89 570.125 1035.7 569.781 1035.33 569.525C1034.96 569.259 1034.37 569.052 1033.58 568.903L1030.24 568.269C1028.33 567.921 1026.91 567.279 1025.97 566.343C1025.03 565.398 1024.57 564.197 1024.58 562.738C1024.57 561.462 1024.91 560.373 1025.6 559.469C1026.28 558.558 1027.26 557.862 1028.53 557.381C1029.8 556.901 1031.29 556.661 1033.02 556.661C1035.6 556.661 1037.64 557.203 1039.13 558.289C1040.62 559.366 1041.45 560.849 1041.6 562.738ZM1053.98 576.36C1051.98 576.36 1050.25 575.95 1048.81 575.13C1047.38 574.301 1046.27 573.15 1045.49 571.675C1044.72 570.192 1044.34 568.472 1044.34 566.517C1044.34 564.553 1044.72 562.834 1045.49 561.359C1046.27 559.875 1047.38 558.724 1048.81 557.903C1050.25 557.075 1051.98 556.661 1053.98 556.661C1055.99 556.661 1057.71 557.075 1059.14 557.903C1060.58 558.724 1061.69 559.875 1062.46 561.359C1063.24 562.834 1063.63 564.553 1063.63 566.517C1063.63 568.472 1063.24 570.192 1062.46 571.675C1061.69 573.15 1060.58 574.301 1059.14 575.13C1057.71 575.95 1055.99 576.36 1053.98 576.36ZM1054.02 571.774C1054.75 571.774 1055.36 571.55 1055.87 571.103C1056.38 570.656 1056.76 570.034 1057.03 569.239C1057.3 568.443 1057.44 567.523 1057.44 566.479C1057.44 565.419 1057.3 564.491 1057.03 563.695C1056.76 562.9 1056.38 562.278 1055.87 561.831C1055.36 561.384 1054.75 561.16 1054.02 561.16C1053.26 561.16 1052.63 561.384 1052.1 561.831C1051.59 562.278 1051.2 562.9 1050.92 563.695C1050.66 564.491 1050.53 565.419 1050.53 566.479C1050.53 567.523 1050.66 568.443 1050.92 569.239C1051.2 570.034 1051.59 570.656 1052.1 571.103C1052.63 571.55 1053.26 571.774 1054.02 571.774ZM1072.82 565.112V576H1066.74V556.909H1072.52V560.414H1072.73C1073.15 559.246 1073.87 558.33 1074.89 557.667C1075.91 556.996 1077.13 556.661 1078.53 556.661C1079.88 556.661 1081.04 556.963 1082.03 557.568C1083.02 558.164 1083.79 559.001 1084.34 560.078C1084.89 561.147 1085.17 562.399 1085.16 563.832V576H1079.08V565.025C1079.09 563.965 1078.82 563.136 1078.27 562.539C1077.73 561.943 1076.99 561.645 1076.02 561.645C1075.39 561.645 1074.82 561.785 1074.33 562.067C1073.85 562.341 1073.48 562.734 1073.21 563.248C1072.96 563.762 1072.83 564.383 1072.82 565.112Z" fill="white"/>
<path opacity="0.6" d="M894.303 624H888.692V605.818H894.551C896.315 605.818 897.824 606.182 899.079 606.91C900.334 607.632 901.296 608.671 901.964 610.026C902.633 611.376 902.968 612.991 902.968 614.874C902.968 616.768 902.63 618.398 901.955 619.765C901.281 621.127 900.298 622.174 899.008 622.908C897.718 623.636 896.149 624 894.303 624ZM890.894 622.047H894.161C895.664 622.047 896.91 621.757 897.898 621.177C898.887 620.597 899.624 619.771 900.109 618.7C900.594 617.629 900.837 616.353 900.837 614.874C900.837 613.406 900.597 612.142 900.118 611.083C899.638 610.017 898.922 609.201 897.969 608.632C897.016 608.058 895.83 607.771 894.409 607.771H890.894V622.047ZM912.094 624.284C910.78 624.284 909.647 623.994 908.694 623.414C907.747 622.828 907.016 622.011 906.501 620.964C905.992 619.91 905.737 618.685 905.737 617.288C905.737 615.892 905.992 614.661 906.501 613.595C907.016 612.524 907.732 611.689 908.649 611.092C909.573 610.488 910.65 610.186 911.881 610.186C912.591 610.186 913.292 610.304 913.985 610.541C914.677 610.778 915.308 611.163 915.876 611.695C916.444 612.222 916.897 612.92 917.234 613.79C917.572 614.661 917.74 615.732 917.74 617.004V617.892H907.229V616.081H915.61C915.61 615.312 915.456 614.625 915.148 614.021C914.846 613.418 914.414 612.941 913.852 612.592C913.295 612.243 912.638 612.068 911.881 612.068C911.046 612.068 910.324 612.275 909.715 612.69C909.111 613.098 908.646 613.631 908.321 614.288C907.995 614.945 907.833 615.649 907.833 616.401V617.608C907.833 618.638 908.01 619.511 908.365 620.227C908.726 620.937 909.226 621.479 909.866 621.852C910.505 622.219 911.248 622.402 912.094 622.402C912.644 622.402 913.142 622.325 913.585 622.171C914.035 622.011 914.423 621.775 914.748 621.461C915.074 621.141 915.325 620.745 915.503 620.271L917.527 620.839C917.314 621.526 916.956 622.13 916.453 622.651C915.95 623.165 915.328 623.568 914.589 623.858C913.849 624.142 913.017 624.284 912.094 624.284ZM931.663 610.364L926.62 624H924.49L919.447 610.364H921.72L925.484 621.23H925.626L929.39 610.364H931.663ZM939.657 624.284C938.343 624.284 937.21 623.994 936.257 623.414C935.31 622.828 934.579 622.011 934.064 620.964C933.555 619.91 933.301 618.685 933.301 617.288C933.301 615.892 933.555 614.661 934.064 613.595C934.579 612.524 935.295 611.689 936.213 611.092C937.136 610.488 938.213 610.186 939.444 610.186C940.155 610.186 940.856 610.304 941.548 610.541C942.241 610.778 942.871 611.163 943.439 611.695C944.008 612.222 944.46 612.92 944.798 613.79C945.135 614.661 945.304 615.732 945.304 617.004V617.892H934.792V616.081H943.173C943.173 615.312 943.019 614.625 942.711 614.021C942.41 613.418 941.977 612.941 941.415 612.592C940.859 612.243 940.202 612.068 939.444 612.068C938.61 612.068 937.888 612.275 937.278 612.69C936.674 613.098 936.21 613.631 935.884 614.288C935.559 614.945 935.396 615.649 935.396 616.401V617.608C935.396 618.638 935.574 619.511 935.929 620.227C936.29 620.937 936.79 621.479 937.429 621.852C938.068 622.219 938.811 622.402 939.657 622.402C940.208 622.402 940.705 622.325 941.149 622.171C941.599 622.011 941.986 621.775 942.312 621.461C942.637 621.141 942.889 620.745 943.066 620.271L945.091 620.839C944.878 621.526 944.52 622.13 944.016 622.651C943.513 623.165 942.892 623.568 942.152 623.858C941.412 624.142 940.581 624.284 939.657 624.284ZM950.586 605.818V624H948.491V605.818H950.586ZM959.963 624.284C958.732 624.284 957.652 623.991 956.723 623.405C955.8 622.819 955.077 622 954.557 620.946C954.042 619.893 953.784 618.661 953.784 617.253C953.784 615.832 954.042 614.592 954.557 613.533C955.077 612.474 955.8 611.651 956.723 611.065C957.652 610.479 958.732 610.186 959.963 610.186C961.194 610.186 962.271 610.479 963.195 611.065C964.124 611.651 964.846 612.474 965.361 613.533C965.882 614.592 966.142 615.832 966.142 617.253C966.142 618.661 965.882 619.893 965.361 620.946C964.846 622 964.124 622.819 963.195 623.405C962.271 623.991 961.194 624.284 959.963 624.284ZM959.963 622.402C960.898 622.402 961.668 622.162 962.271 621.683C962.875 621.203 963.322 620.573 963.612 619.792C963.902 619.011 964.047 618.164 964.047 617.253C964.047 616.341 963.902 615.492 963.612 614.705C963.322 613.918 962.875 613.281 962.271 612.796C961.668 612.311 960.898 612.068 959.963 612.068C959.028 612.068 958.259 612.311 957.655 612.796C957.051 613.281 956.604 613.918 956.314 614.705C956.024 615.492 955.879 616.341 955.879 617.253C955.879 618.164 956.024 619.011 956.314 619.792C956.604 620.573 957.051 621.203 957.655 621.683C958.259 622.162 959.028 622.402 959.963 622.402ZM969.34 629.114V610.364H971.365V612.53H971.613C971.767 612.293 971.98 611.991 972.252 611.624C972.531 611.251 972.927 610.92 973.442 610.63C973.963 610.334 974.667 610.186 975.555 610.186C976.703 610.186 977.715 610.473 978.591 611.047C979.467 611.621 980.151 612.435 980.642 613.489C981.133 614.542 981.379 615.785 981.379 617.217C981.379 618.661 981.133 619.913 980.642 620.973C980.151 622.026 979.47 622.843 978.6 623.423C977.73 623.997 976.727 624.284 975.59 624.284C974.715 624.284 974.013 624.139 973.486 623.849C972.96 623.553 972.554 623.219 972.27 622.846C971.986 622.467 971.767 622.153 971.613 621.905H971.436V629.114H969.34ZM971.4 617.182C971.4 618.212 971.551 619.12 971.853 619.907C972.155 620.689 972.596 621.301 973.176 621.745C973.756 622.183 974.466 622.402 975.306 622.402C976.182 622.402 976.913 622.171 977.499 621.71C978.091 621.242 978.535 620.615 978.831 619.827C979.133 619.034 979.284 618.152 979.284 617.182C979.284 616.223 979.136 615.359 978.84 614.589C978.55 613.814 978.109 613.202 977.517 612.752C976.931 612.296 976.194 612.068 975.306 612.068C974.454 612.068 973.738 612.284 973.158 612.716C972.578 613.142 972.14 613.74 971.844 614.51C971.548 615.273 971.4 616.164 971.4 617.182ZM990.292 624.284C988.978 624.284 987.845 623.994 986.892 623.414C985.945 622.828 985.214 622.011 984.699 620.964C984.19 619.91 983.936 618.685 983.936 617.288C983.936 615.892 984.19 614.661 984.699 613.595C985.214 612.524 985.93 611.689 986.848 611.092C987.771 610.488 988.848 610.186 990.079 610.186C990.789 610.186 991.491 610.304 992.183 610.541C992.876 610.778 993.506 611.163 994.074 611.695C994.642 612.222 995.095 612.92 995.432 613.79C995.77 614.661 995.938 615.732 995.938 617.004V617.892H985.427V616.081H993.808C993.808 615.312 993.654 614.625 993.346 614.021C993.044 613.418 992.612 612.941 992.05 612.592C991.494 612.243 990.837 612.068 990.079 612.068C989.245 612.068 988.523 612.275 987.913 612.69C987.309 613.098 986.845 613.631 986.519 614.288C986.194 614.945 986.031 615.649 986.031 616.401V617.608C986.031 618.638 986.208 619.511 986.563 620.227C986.925 620.937 987.425 621.479 988.064 621.852C988.703 622.219 989.446 622.402 990.292 622.402C990.843 622.402 991.34 622.325 991.784 622.171C992.233 622.011 992.621 621.775 992.947 621.461C993.272 621.141 993.524 620.745 993.701 620.271L995.725 620.839C995.512 621.526 995.154 622.13 994.651 622.651C994.148 623.165 993.527 623.568 992.787 623.858C992.047 624.142 991.215 624.284 990.292 624.284ZM999.126 624V610.364H1001.15V612.423H1001.29C1001.54 611.749 1001.99 611.201 1002.64 610.781C1003.29 610.361 1004.03 610.151 1004.84 610.151C1005 610.151 1005.19 610.154 1005.42 610.159C1005.65 610.165 1005.83 610.174 1005.94 610.186V612.317C1005.87 612.299 1005.71 612.272 1005.46 612.237C1005.21 612.195 1004.94 612.175 1004.67 612.175C1004 612.175 1003.41 612.314 1002.89 612.592C1002.37 612.864 1001.97 613.243 1001.66 613.728C1001.37 614.208 1001.22 614.755 1001.22 615.371V624H999.126Z" fill="white" fill-opacity="0.8"/>
<path d="M449.531 43.8182C449.531 49.5795 448.423 54.4631 446.207 58.4688C443.991 62.4744 440.991 65.517 437.207 67.5966C433.44 69.6761 429.213 70.7159 424.525 70.7159C419.821 70.7159 415.585 69.6676 411.818 67.571C408.051 65.4744 405.059 62.4318 402.843 58.4432C400.645 54.4375 399.545 49.5625 399.545 43.8182C399.545 38.0568 400.645 33.1733 402.843 29.1676C405.059 25.1619 408.051 22.1193 411.818 20.0398C415.585 17.9602 419.821 16.9205 424.525 16.9205C429.213 16.9205 433.44 17.9602 437.207 20.0398C440.991 22.1193 443.991 25.1619 446.207 29.1676C448.423 33.1733 449.531 38.0568 449.531 43.8182ZM436.593 43.8182C436.593 40.4091 436.108 37.5284 435.136 35.1761C434.181 32.8239 432.801 31.0426 430.994 29.8324C429.204 28.6222 427.048 28.017 424.525 28.017C422.02 28.017 419.863 28.6222 418.056 29.8324C416.25 31.0426 414.86 32.8239 413.889 35.1761C412.934 37.5284 412.457 40.4091 412.457 43.8182C412.457 47.2273 412.934 50.108 413.889 52.4602C414.86 54.8125 416.25 56.5937 418.056 57.804C419.863 59.0142 422.02 59.6193 424.525 59.6193C427.048 59.6193 429.204 59.0142 430.994 57.804C432.801 56.5937 434.181 54.8125 435.136 52.4602C436.108 50.108 436.593 47.2273 436.593 43.8182ZM482.258 53.0483V30.7273H494.735V70H482.821V62.6875H482.412C481.542 65.0909 480.059 67 477.963 68.4148C475.883 69.8125 473.369 70.5114 470.42 70.5114C467.744 70.5114 465.392 69.8977 463.363 68.6705C461.335 67.4432 459.758 65.7301 458.633 63.5312C457.508 61.3153 456.937 58.7244 456.92 55.7585V30.7273H469.423V53.304C469.44 55.4347 470.002 57.1136 471.11 58.3409C472.218 59.5682 473.727 60.1818 475.636 60.1818C476.88 60.1818 477.997 59.9091 478.985 59.3636C479.991 58.8011 480.784 57.9915 481.363 56.9347C481.96 55.8608 482.258 54.5653 482.258 53.0483ZM502.694 70V30.7273H514.838V37.8864H515.248C515.963 35.2955 517.131 33.3693 518.75 32.108C520.37 30.8295 522.253 30.1903 524.401 30.1903C524.98 30.1903 525.577 30.233 526.191 30.3182C526.804 30.3864 527.375 30.4972 527.904 30.6506V41.517C527.307 41.3125 526.523 41.1506 525.551 41.0312C524.597 40.9119 523.745 40.8523 522.995 40.8523C521.512 40.8523 520.174 41.1847 518.98 41.8494C517.804 42.4972 516.875 43.4091 516.194 44.5852C515.529 45.7443 515.196 47.108 515.196 48.6761V70H502.694ZM570.635 30.7273V39.9318H545.859V30.7273H570.635ZM551.049 21.3182H563.552V57.6506C563.552 58.4176 563.672 59.0398 563.91 59.517C564.166 59.9773 564.532 60.3097 565.01 60.5142C565.487 60.7017 566.058 60.7955 566.723 60.7955C567.2 60.7955 567.703 60.7528 568.231 60.6676C568.777 60.5653 569.186 60.4801 569.458 60.4119L571.35 69.4375C570.754 69.608 569.91 69.821 568.819 70.0767C567.745 70.3324 566.458 70.4943 564.958 70.5625C562.027 70.6989 559.512 70.358 557.416 69.5398C555.336 68.7045 553.743 67.4091 552.635 65.6534C551.544 63.8977 551.015 61.6903 551.049 59.0312V21.3182ZM594.95 70.7415C590.842 70.7415 587.297 69.9318 584.314 68.3125C581.348 66.6761 579.064 64.3494 577.461 61.3324C575.876 58.2983 575.083 54.6932 575.083 50.517C575.083 46.4602 575.885 42.9148 577.487 39.8807C579.089 36.8295 581.348 34.4602 584.262 32.7727C587.177 31.0682 590.612 30.2159 594.566 30.2159C597.362 30.2159 599.919 30.6506 602.237 31.5199C604.555 32.3892 606.558 33.6761 608.245 35.3807C609.933 37.0852 611.245 39.1903 612.183 41.696C613.12 44.1847 613.589 47.0398 613.589 50.2614V53.3807H579.456V46.1193H601.956C601.939 44.7898 601.623 43.6051 601.01 42.5653C600.396 41.5256 599.552 40.7159 598.478 40.1364C597.422 39.5398 596.203 39.2415 594.822 39.2415C593.424 39.2415 592.172 39.5568 591.064 40.1875C589.956 40.8011 589.078 41.6449 588.43 42.7188C587.782 43.7756 587.441 44.9773 587.407 46.3239V53.7131C587.407 55.3153 587.723 56.7216 588.353 57.9318C588.984 59.125 589.879 60.054 591.038 60.7188C592.197 61.3835 593.578 61.7159 595.18 61.7159C596.288 61.7159 597.294 61.5625 598.197 61.2557C599.1 60.9489 599.876 60.4972 600.524 59.9006C601.172 59.304 601.657 58.571 601.981 57.7017L613.461 58.0341C612.984 60.608 611.936 62.8494 610.316 64.7585C608.714 66.6506 606.609 68.125 604.001 69.1818C601.393 70.2216 598.376 70.7415 594.95 70.7415ZM631.046 70.6648C628.54 70.6648 626.316 70.2472 624.373 69.4119C622.446 68.5597 620.921 67.2812 619.796 65.5767C618.688 63.8551 618.134 61.6989 618.134 59.108C618.134 56.9261 618.517 55.0852 619.284 53.5852C620.051 52.0852 621.108 50.8665 622.455 49.929C623.801 48.9915 625.353 48.2841 627.108 47.8068C628.864 47.3125 630.739 46.9801 632.733 46.8097C634.966 46.6051 636.765 46.392 638.128 46.1705C639.492 45.9318 640.48 45.5994 641.094 45.1733C641.725 44.7301 642.04 44.108 642.04 43.3068V43.179C642.04 41.8665 641.588 40.8523 640.685 40.1364C639.782 39.4205 638.563 39.0625 637.029 39.0625C635.375 39.0625 634.046 39.4205 633.04 40.1364C632.034 40.8523 631.395 41.8409 631.123 43.1023L619.591 42.6932C619.932 40.3068 620.81 38.1761 622.225 36.3011C623.657 34.4091 625.617 32.9261 628.105 31.8523C630.611 30.7614 633.62 30.2159 637.131 30.2159C639.637 30.2159 641.946 30.5142 644.06 31.1108C646.174 31.6903 648.015 32.5426 649.583 33.6676C651.151 34.7756 652.361 36.1392 653.213 37.7585C654.083 39.3778 654.517 41.2273 654.517 43.3068V70H642.756V64.5284H642.449C641.75 65.858 640.855 66.983 639.765 67.9034C638.691 68.8239 637.421 69.5142 635.955 69.9744C634.506 70.4347 632.87 70.6648 631.046 70.6648ZM634.907 62.483C636.253 62.483 637.463 62.2102 638.537 61.6648C639.628 61.1193 640.498 60.3693 641.145 59.4148C641.793 58.4432 642.117 57.3182 642.117 56.0398V52.3068C641.759 52.4943 641.324 52.6648 640.813 52.8182C640.319 52.9716 639.773 53.1165 639.176 53.2528C638.58 53.3892 637.966 53.5085 637.336 53.6108C636.705 53.7131 636.1 53.8068 635.52 53.892C634.344 54.0795 633.338 54.3693 632.503 54.7614C631.685 55.1534 631.054 55.6648 630.611 56.2955C630.185 56.9091 629.972 57.642 629.972 58.4943C629.972 59.7898 630.432 60.7784 631.353 61.4602C632.29 62.142 633.475 62.483 634.907 62.483ZM662.162 70V30.7273H674.051V37.9375H674.486C675.304 35.5511 676.685 33.6676 678.628 32.2869C680.571 30.9062 682.89 30.2159 685.583 30.2159C688.31 30.2159 690.645 30.9148 692.588 32.3125C694.532 33.7102 695.767 35.5852 696.296 37.9375H696.705C697.438 35.6023 698.87 33.7358 701 32.3381C703.131 30.9233 705.645 30.2159 708.543 30.2159C712.259 30.2159 715.276 31.4091 717.594 33.7955C719.912 36.1648 721.071 39.4205 721.071 43.5625V70H708.569V46.4261C708.569 44.4659 708.066 42.9744 707.06 41.9517C706.054 40.9119 704.75 40.392 703.148 40.392C701.426 40.392 700.071 40.9545 699.083 42.0795C698.111 43.1875 697.625 44.679 697.625 46.554V70H685.608V46.2983C685.608 44.4744 685.114 43.0341 684.125 41.9773C683.137 40.9205 681.833 40.392 680.213 40.392C679.123 40.392 678.159 40.6562 677.324 41.1847C676.489 41.696 675.833 42.429 675.355 43.3835C674.895 44.3381 674.665 45.4631 674.665 46.7585V70H662.162Z" fill="white"/>
</svg>
